# xmcd
#
# Track frame offsets:
#	150
#	12953
#	26691
#	40768
#	51849
#	63190
#	76150
#	86599
#	97785
#	109074
#	120511
#	134551
#	147591
#	160180
#	172354
#	182831
#	193952
#	207745
#	219048
#	230036
#	242086
#	252732
#	263159
#	275861
#	290217
#	303919
#	315109
#	326392
#	337620
#	351588
#	362587
#	375733
#
# Disc length: 5183 seconds
# Revision: 3
# Processed by: cddbd v1.5.2PL0 Copyright (c) Steve Scherf et al.
# Submitted via: dBpowerAMP V12.0
#
DISCID=e6143d20
DTITLE=Various Artist - The Sun Blues Box 3 - Real Gone Rockets
DYEAR=2013
DGENRE=Blues
TTITLE0=Jackie Brenston and His Delta Cats - Rocket 88
TTITLE1=IKE Turner and HIS Kings OF Rhythm - I'm Lonesome Baby
TTITLE2=IKE Turner and HIS Kings OF Rhythm - Heartbroken and Worried
TTITLE3=B.B. King - B. B. Blues
TTITLE4=B.B. King - She's Dynamite
TTITLE5=Jackie Brenston and His Delta Cats - Independent Woman
TTITLE6=Lou Sargent - Ridin' the Boogie
TTITLE7=Jackie Brenston and His Delta Cats - My Real Gone Rocket
TTITLE8=Jackie Brenston and His Delta Cats - Tuckered Out
TTITLE9=Billy Love - Juiced
TTITLE10=Rosco Gordon - Booted
TTITLE11=L.J. Thomas and His Louisiana Playboys - Sam's Drag
TTITLE12=L.J. Thomas and His Louisiana Playboys - Baby Take a Chance with Me
TTITLE13=Billy 'Red' Love - Drop Top
TTITLE14=Billy 'Red' Love - It Ain't No More
TTITLE15=Rosco Gordon - T Model Boogie
TTITLE16=Rosco Gordon - I Wade Through Muddy Water
TTITLE17=Rosco Gordon - Decorate the Counter
TTITLE18=Rufus Thomas - Decorate the Counter
TTITLE19=Rufus Thomas - Married Woman
TTITLE20=Houston Stokes - You'll Be Sorry Someday
TTITLE21=Houston Stokes - We're All Gonna Do Some Wrong
TTITLE22=Walter "Tang" Smith - Hi-Tone Mama
TTITLE23=Walter "Tang" Smith - Every Monday Morning Blues
TTITLE24=Billy Love - Early in the Morning
TTITLE25='Tiny' and Elmer The Disc Jockey Rooster Kennedy - Early in the Morning, Baby
TTITLE26=Tiny Kennedy - Strange Kind of Feeling
TTITLE27=Tiny Kennedy - Blues Disease
TTITLE28=Tiny Kennedy - Don't Lay This Job on Me
TTITLE29=Sherman 'Blues' Johnson and His Clouds Of Joy - Hot Fish
TTITLE30=Sherman 'Blues' Johnson and His Clouds Of Joy - Pretty Baby Blues
TTITLE31=Unknown Artist - Got Me a Horse and Wagon
EXTD=
EXTT0=
EXTT1=
EXTT2=
EXTT3=
EXTT4=
EXTT5=
EXTT6=
EXTT7=
EXTT8=
EXTT9=
EXTT10=
EXTT11=
EXTT12=
EXTT13=
EXTT14=
EXTT15=
EXTT16=
EXTT17=
EXTT18=
EXTT19=
EXTT20=
EXTT21=
EXTT22=
EXTT23=
EXTT24=
EXTT25=
EXTT26=
EXTT27=
EXTT28=
EXTT29=
EXTT30=
EXTT31=
PLAYORDER=
